<svg xmlns="http://www.w3.org/2000/svg" width="32" height="28" viewBox="0 0 32 28"><path fill="rgba(0,0,0,.75)" d="M28.297 24.297Q28.594 24 29 24t.703.297l2 2-1.406 1.406L29 26.406l-1.297 1.297Q27.423 28 27 28t-.703-.297L25 26.406l-1.297 1.297Q23.406 28 23 28t-.703-.297L21 26.406l-1.297 1.297Q19.406 28 19 28t-.703-.297L17 26.406l-1.297 1.297Q15.406 28 15 28t-.703-.297L13 26.406l-1.297 1.297Q11.406 28 11 28t-.703-.297L9 26.406l-1.297 1.297Q7.406 28 7 28t-.703-.297L5 26.406l-1.297 1.297Q3.406 28 3 28t-.703-.297l-2-2 1.406-1.406L3 25.594l1.297-1.297Q4.594 24 5 24t.703.297L7 25.594l1.297-1.297Q8.594 24 9 24t.703.297L11 25.594l1.297-1.297Q12.594 24 13 24t.703.297L15 25.594l1.297-1.297Q16.594 24 17 24t.703.297L19 25.594l1.297-1.297Q20.594 24 21 24t.703.297L23 25.594l1.297-1.297Q24.594 24 25 24t.703.297L27 25.594zm-24.594-.594Q3.406 24 3 24t-.703-.297l-2-2 1.406-1.406L3 21.577l1.297-1.28Q4.594 20 5 20t.703.297L7 21.577l1-1V16l-3.28-4.906q-.267-.406-.11-.883t.625-.632L8 8.672V4h2V2h4V0h4v2h4v2h2v4.672l2.767.906q.47.156.625.633t-.11.884L24.003 16v4.578l.297-.28Q24.595 20 25 20t.703.297l1.297 1.28 1.297-1.28Q28.595 20 29 20t.703.297l2 2-1.406 1.406L29 22.406l-1.297 1.297q-.28.297-.703.297t-.703-.297L25 22.406l-1.297 1.297q-.297.297-.703.297t-.703-.297L21 22.406l-1.297 1.297q-.297.297-.703.297t-.703-.297L17 22.406l-1.297 1.297q-.297.297-.703.297t-.703-.297L13 22.406l-1.297 1.297q-.297.297-.703.297t-.703-.297L9 22.406l-1.297 1.297Q7.408 24 7.002 24t-.703-.297L5 22.406zM10 6v2l6-2 6 2V6h-2V4h-8v2h-2z"/></svg>