<svg xmlns="http://www.w3.org/2000/svg" width="22" height="28" viewBox="0 0 22 28"><path fill="rgba(0,0,0,.75)" d="M21.906 17.234q-.5 1.25-1.188 2.156t-1.422 1.383-1.547.727-1.587.227-1.508-.133-1.352-.344-1.086-.43-.72-.352l-.265-.156Q9.466 23.875 6.71 25.93T.7 28q-.296 0-.5-.204t-.202-.5.203-.492.5-.195q2.704-.017 5.04-1.68t3.93-4.603q-.562.22-1.125.36t-1.297.202-1.422-.04-1.453-.445-1.437-.922-1.32-1.563-1.164-2.28q1.78-.735 3.344-.892t2.617.117 1.945.883T9.74 16.95t.884 1.282q.828-2.047 1.234-4.547-.11.016-.28.04t-.728.038-1.086-.008T8.49 13.6t-1.382-.36-1.313-.664-1.172-1.016-.852-1.477-.444-1.992q1.094-.436 2.086-.57t1.758.017 1.437.47 1.148.78.875.953.656.984.43.875.25.616l.063.25q.186-1.906.186-3.047-.125-.095-.336-.25t-.766-.696-.992-1.117-.844-1.453-.516-1.758.187-1.984 1.093-2.164q1.14.39 1.992.96t1.32 1.196.75 1.328.32 1.39-.008 1.337-.203 1.194-.297.97-.266.655l-.108.233q.016.078.016.79t-.016 1.116q.047-.11.156-.29t.477-.672.79-.906 1.108-.867 1.43-.695 1.75-.227 2.07.375q-.03 1.22-.336 2.21t-.78 1.634-1.087 1.117-1.273.71-1.32.375-1.25.148-1.055-.016-.727-.07l-.266-.047q-.36 2.297-1.142 4.422.094-.11.28-.29t.774-.64 1.21-.82 1.556-.656 1.836-.313 2.016.367 2.14 1.21z"/></svg>