<svg xmlns="http://www.w3.org/2000/svg" width="32" height="32" viewBox="0 0 32 32"><path fill="#f00" d="M13.53 1.406c1.564 4.188.75 6.47-1 8.28-1.905 2-4.874 3.5-6.968 6.44-2.78 3.905-3.25 12.5 6.78 14.75-4.218-2.22-5.124-8.657-.562-12.69-1.188 3.907 1 6.407 3.72 5.5 2.655-.905 4.405 1 4.343 3.19-.03 1.5-.625 2.78-2.156 3.5 6.53-1.157 9.156-6.564 9.156-10.69 0-5.437-4.844-6.187-2.406-10.75-2.906.25-3.906 2.157-3.625 5.282.188 2.063-1.97 3.47-3.563 2.53-1.282-.78-1.25-2.28-.126-3.405C19.53 10.968 20.468 5.5 13.53 1.405z"/></svg>