<svg xmlns="http://www.w3.org/2000/svg" width="28" height="28" viewBox="0 0 28 28"><path fill="rgba(0,0,0,.75)" d="M10 22q0-.812-.594-1.406T8 20t-1.406.594T6 22t.594 1.406T8 24t1.406-.594T10 22zm-6-8h6v-4H7.53q-.202 0-.343.14L4.14 13.19q-.14.14-.14.344v.47zm20 8q0-.812-.594-1.406T22 20t-1.406.594T20 22t.594 1.406T22 24t1.406-.594T24 22zm4-17v16q0 .234-.063.414t-.21.29-.26.18-.366.093-.35.03-.4 0T26 22q0 1.656-1.173 2.828T22 26t-2.83-1.172T18 22h-6q0 1.656-1.173 2.828T8 26t-2.83-1.172T4 22H3q-.048 0-.353.008t-.398 0-.353-.03-.367-.095-.258-.18-.21-.29T.997 21q0-.406.297-.703T1.998 20v-5q0-.125-.008-.547t0-.594.04-.54.1-.578.22-.477.352-.47l3.094-3.093q.297-.297.79-.5T7.498 8H10V5q0-.407.296-.704T11 4h16q.405 0 .702.296T28 5z"/></svg>